<svg xmlns="http://www.w3.org/2000/svg" xmlns:xlink="http://www.w3.org/1999/xlink" width="1080" zoomAndPan="magnify" viewBox="0 0 810 809.999993" height="1080" preserveAspectRatio="xMidYMid meet" version="1.0"><defs><g/><clipPath id="4a6cc21c0f"><path d="M 283.328125 345.4375 L 526.8125 345.4375 L 526.8125 391.816406 L 283.328125 391.816406 Z M 283.328125 345.4375 " clip-rule="nonzero"/></clipPath><clipPath id="1745536f94"><path d="M 306.519531 345.4375 L 503.480469 345.4375 C 516.289062 345.4375 526.671875 355.820312 526.671875 368.628906 C 526.671875 381.433594 516.289062 391.816406 503.480469 391.816406 L 306.519531 391.816406 C 293.710938 391.816406 283.328125 381.433594 283.328125 368.628906 C 283.328125 355.820312 293.710938 345.4375 306.519531 345.4375 Z M 306.519531 345.4375 " clip-rule="nonzero"/></clipPath></defs><g clip-path="url(#4a6cc21c0f)"><g clip-path="url(#1745536f94)"><path fill="#d7ff81" d="M 283.328125 345.4375 L 526.632812 345.4375 L 526.632812 391.816406 L 283.328125 391.816406 Z M 283.328125 345.4375 " fill-opacity="1" fill-rule="nonzero"/></g></g><g fill="#000000" fill-opacity="1"><g transform="translate(286.32992, 372.438575)"><g/></g></g><g fill="#000000" fill-opacity="1"><g transform="translate(290.883822, 372.438575)"><g/></g></g><g fill="#000000" fill-opacity="1"><g transform="translate(295.437723, 372.438575)"><g/></g></g><g fill="#000000" fill-opacity="1"><g transform="translate(299.991625, 372.438575)"><g/></g></g><g fill="#000000" fill-opacity="1"><g transform="translate(304.552576, 372.438575)"><g><path d="M 0.03125 -0.046875 C 0.320312 -0.242188 0.585938 -0.484375 0.828125 -0.765625 C 1.066406 -1.046875 1.28125 -1.445312 1.46875 -1.96875 L 5.09375 -11.734375 C 5.226562 -12.148438 5.242188 -12.53125 5.140625 -12.875 L 7.078125 -12.875 L 11.1875 -1.90625 C 11.351562 -1.4375 11.53125 -1.054688 11.71875 -0.765625 C 11.914062 -0.484375 12.15625 -0.25 12.4375 -0.0625 L 12.4375 0 L 8.734375 0 L 8.734375 -0.046875 C 9.066406 -0.242188 9.253906 -0.484375 9.296875 -0.765625 C 9.335938 -1.054688 9.28125 -1.429688 9.125 -1.890625 L 8.421875 -3.96875 L 3.328125 -3.96875 L 2.59375 -1.921875 C 2.414062 -1.421875 2.347656 -1.03125 2.390625 -0.75 C 2.429688 -0.46875 2.59375 -0.234375 2.875 -0.046875 L 2.875 0 L 0.03125 0 Z M 3.640625 -4.8125 L 8.109375 -4.8125 L 5.90625 -11.171875 Z M 3.640625 -4.8125 "/></g></g></g><g fill="#000000" fill-opacity="1"><g transform="translate(316.769887, 372.438575)"><g><path d="M 3.921875 0.25 C 3.097656 0.25 2.453125 0.0078125 1.984375 -0.46875 C 1.515625 -0.957031 1.28125 -1.753906 1.28125 -2.859375 L 1.28125 -6.03125 C 1.28125 -6.644531 1.238281 -7.113281 1.15625 -7.4375 C 1.070312 -7.769531 0.882812 -8.046875 0.59375 -8.265625 L 0.59375 -8.3125 L 3.625 -8.3125 L 3.625 -8.265625 C 3.363281 -8.046875 3.195312 -7.769531 3.125 -7.4375 C 3.050781 -7.113281 3.015625 -6.644531 3.015625 -6.03125 L 3.015625 -3.015625 C 3.015625 -2.242188 3.15625 -1.679688 3.4375 -1.328125 C 3.71875 -0.972656 4.132812 -0.796875 4.6875 -0.796875 C 5.34375 -0.796875 5.875 -1.03125 6.28125 -1.5 C 6.695312 -1.96875 6.976562 -2.550781 7.125 -3.25 L 7.125 -6.03125 C 7.125 -6.644531 7.085938 -7.113281 7.015625 -7.4375 C 6.941406 -7.769531 6.765625 -8.046875 6.484375 -8.265625 L 6.484375 -8.3125 L 9.53125 -8.3125 L 9.53125 -8.265625 C 9.238281 -8.046875 9.050781 -7.769531 8.96875 -7.4375 C 8.894531 -7.113281 8.859375 -6.644531 8.859375 -6.03125 L 8.859375 -2.28125 C 8.859375 -1.644531 8.894531 -1.164062 8.96875 -0.84375 C 9.050781 -0.53125 9.238281 -0.269531 9.53125 -0.0625 L 9.53125 0 L 6.90625 0 C 6.988281 -0.21875 7.046875 -0.472656 7.078125 -0.765625 C 7.109375 -1.054688 7.125 -1.472656 7.125 -2.015625 C 6.875 -1.410156 6.476562 -0.878906 5.9375 -0.421875 C 5.40625 0.0234375 4.734375 0.25 3.921875 0.25 Z M 3.921875 0.25 "/></g></g></g><g fill="#000000" fill-opacity="1"><g transform="translate(327.016159, 372.438575)"><g><path d="M 4.25 0.15625 C 3.789062 0.15625 3.378906 0.0703125 3.015625 -0.09375 C 2.648438 -0.269531 2.359375 -0.5625 2.140625 -0.96875 C 1.921875 -1.382812 1.8125 -1.957031 1.8125 -2.6875 L 1.8125 -7.515625 L 0.0625 -7.515625 L 0.0625 -8.3125 L 1.8125 -8.3125 L 1.8125 -10.609375 L 3.484375 -11.84375 L 3.53125 -11.84375 L 3.53125 -8.3125 L 6.296875 -8.3125 L 6.296875 -7.515625 L 3.53125 -7.515625 L 3.53125 -2.71875 C 3.53125 -2.019531 3.65625 -1.546875 3.90625 -1.296875 C 4.164062 -1.054688 4.488281 -0.9375 4.875 -0.9375 C 5.632812 -0.9375 6.222656 -1.34375 6.640625 -2.15625 L 6.828125 -1.53125 C 6.597656 -1.007812 6.253906 -0.597656 5.796875 -0.296875 C 5.335938 0.00390625 4.820312 0.15625 4.25 0.15625 Z M 4.25 0.15625 "/></g></g></g><g fill="#000000" fill-opacity="1"><g transform="translate(333.897984, 372.438575)"><g><path d="M 0.65625 0 L 0.65625 -0.0625 C 0.976562 -0.269531 1.175781 -0.539062 1.25 -0.875 C 1.332031 -1.207031 1.375 -1.675781 1.375 -2.28125 L 1.375 -11 C 1.375 -11.507812 1.332031 -11.914062 1.25 -12.21875 C 1.175781 -12.519531 1.007812 -12.765625 0.75 -12.953125 L 0.75 -13.015625 L 3.109375 -13.3125 L 3.234375 -13.25 C 3.210938 -13.070312 3.1875 -12.894531 3.15625 -12.71875 C 3.132812 -12.550781 3.117188 -12.332031 3.109375 -12.0625 C 3.109375 -11.800781 3.109375 -11.445312 3.109375 -11 L 3.109375 -6.484375 C 3.367188 -7.066406 3.765625 -7.566406 4.296875 -7.984375 C 4.835938 -8.398438 5.519531 -8.609375 6.34375 -8.609375 C 7.15625 -8.609375 7.796875 -8.363281 8.265625 -7.875 C 8.734375 -7.394531 8.96875 -6.597656 8.96875 -5.484375 L 8.96875 -2.28125 C 8.96875 -1.675781 9.007812 -1.207031 9.09375 -0.875 C 9.175781 -0.539062 9.359375 -0.269531 9.640625 -0.0625 L 9.640625 0 L 6.609375 0 L 6.609375 -0.0625 C 6.878906 -0.269531 7.050781 -0.539062 7.125 -0.875 C 7.195312 -1.207031 7.234375 -1.675781 7.234375 -2.28125 L 7.234375 -5.359375 C 7.234375 -6.128906 7.09375 -6.6875 6.8125 -7.03125 C 6.53125 -7.382812 6.109375 -7.5625 5.546875 -7.5625 C 4.890625 -7.5625 4.347656 -7.335938 3.921875 -6.890625 C 3.503906 -6.453125 3.234375 -5.9375 3.109375 -5.34375 L 3.109375 -2.28125 C 3.109375 -1.675781 3.144531 -1.207031 3.21875 -0.875 C 3.300781 -0.539062 3.492188 -0.269531 3.796875 -0.0625 L 3.796875 0 Z M 0.65625 0 "/></g></g></g><g fill="#000000" fill-opacity="1"><g transform="translate(344.127262, 372.438575)"><g><path d="M 4.859375 0.28125 C 4.046875 0.28125 3.320312 0.109375 2.6875 -0.234375 C 2.050781 -0.585938 1.550781 -1.09375 1.1875 -1.75 C 0.820312 -2.40625 0.640625 -3.195312 0.640625 -4.125 C 0.640625 -5.050781 0.828125 -5.847656 1.203125 -6.515625 C 1.585938 -7.179688 2.101562 -7.695312 2.75 -8.0625 C 3.394531 -8.425781 4.113281 -8.609375 4.90625 -8.609375 C 5.726562 -8.609375 6.4375 -8.441406 7.03125 -8.109375 C 7.632812 -7.773438 8.101562 -7.3125 8.4375 -6.71875 C 8.769531 -6.132812 8.941406 -5.457031 8.953125 -4.6875 L 2.328125 -4.6875 L 2.328125 -4.40625 C 2.328125 -3.726562 2.429688 -3.113281 2.640625 -2.5625 C 2.847656 -2.019531 3.164062 -1.585938 3.59375 -1.265625 C 4.03125 -0.953125 4.570312 -0.796875 5.21875 -0.796875 C 6.019531 -0.796875 6.648438 -1.023438 7.109375 -1.484375 C 7.566406 -1.953125 7.882812 -2.523438 8.0625 -3.203125 L 9 -3.203125 C 8.875 -2.554688 8.632812 -1.96875 8.28125 -1.4375 C 7.9375 -0.90625 7.476562 -0.484375 6.90625 -0.171875 C 6.34375 0.128906 5.660156 0.28125 4.859375 0.28125 Z M 2.40625 -5.421875 L 7.28125 -5.421875 C 7.207031 -6.097656 6.972656 -6.664062 6.578125 -7.125 C 6.179688 -7.582031 5.625 -7.8125 4.90625 -7.8125 C 4.238281 -7.8125 3.691406 -7.597656 3.265625 -7.171875 C 2.835938 -6.742188 2.550781 -6.160156 2.40625 -5.421875 Z M 2.40625 -5.421875 "/></g></g></g><g fill="#000000" fill-opacity="1"><g transform="translate(353.727824, 372.438575)"><g><path d="M 0.71875 0 L 0.71875 -0.0625 C 1.007812 -0.269531 1.191406 -0.539062 1.265625 -0.875 C 1.347656 -1.207031 1.390625 -1.675781 1.390625 -2.28125 L 1.390625 -6.03125 C 1.390625 -6.664062 1.347656 -7.140625 1.265625 -7.453125 C 1.191406 -7.773438 1.007812 -8.046875 0.71875 -8.265625 L 0.71875 -8.3125 L 3.390625 -8.3125 C 3.296875 -8.125 3.226562 -7.890625 3.1875 -7.609375 C 3.15625 -7.335938 3.132812 -6.960938 3.125 -6.484375 C 3.382812 -7.066406 3.785156 -7.566406 4.328125 -7.984375 C 4.867188 -8.398438 5.546875 -8.609375 6.359375 -8.609375 C 7.171875 -8.609375 7.8125 -8.363281 8.28125 -7.875 C 8.757812 -7.394531 9 -6.597656 9 -5.484375 L 9 -2.28125 C 9 -1.675781 9.035156 -1.207031 9.109375 -0.875 C 9.191406 -0.539062 9.375 -0.269531 9.65625 -0.0625 L 9.65625 0 L 6.625 0 L 6.625 -0.0625 C 6.894531 -0.269531 7.066406 -0.539062 7.140625 -0.875 C 7.222656 -1.207031 7.265625 -1.675781 7.265625 -2.28125 L 7.265625 -5.359375 C 7.265625 -6.128906 7.117188 -6.6875 6.828125 -7.03125 C 6.546875 -7.382812 6.125 -7.5625 5.5625 -7.5625 C 4.90625 -7.5625 4.363281 -7.335938 3.9375 -6.890625 C 3.519531 -6.453125 3.25 -5.9375 3.125 -5.34375 L 3.125 -2.28125 C 3.125 -1.675781 3.160156 -1.207031 3.234375 -0.875 C 3.316406 -0.539062 3.503906 -0.269531 3.796875 -0.0625 L 3.796875 0 Z M 0.71875 0 "/></g></g></g><g fill="#000000" fill-opacity="1"><g transform="translate(363.855135, 372.438575)"><g><path d="M 4.25 0.15625 C 3.789062 0.15625 3.378906 0.0703125 3.015625 -0.09375 C 2.648438 -0.269531 2.359375 -0.5625 2.140625 -0.96875 C 1.921875 -1.382812 1.8125 -1.957031 1.8125 -2.6875 L 1.8125 -7.515625 L 0.0625 -7.515625 L 0.0625 -8.3125 L 1.8125 -8.3125 L 1.8125 -10.609375 L 3.484375 -11.84375 L 3.53125 -11.84375 L 3.53125 -8.3125 L 6.296875 -8.3125 L 6.296875 -7.515625 L 3.53125 -7.515625 L 3.53125 -2.71875 C 3.53125 -2.019531 3.65625 -1.546875 3.90625 -1.296875 C 4.164062 -1.054688 4.488281 -0.9375 4.875 -0.9375 C 5.632812 -0.9375 6.222656 -1.34375 6.640625 -2.15625 L 6.828125 -1.53125 C 6.597656 -1.007812 6.253906 -0.597656 5.796875 -0.296875 C 5.335938 0.00390625 4.820312 0.15625 4.25 0.15625 Z M 4.25 0.15625 "/></g></g></g><g fill="#000000" fill-opacity="1"><g transform="translate(370.736959, 372.438575)"><g><path d="M 0.59375 0 L 0.59375 -0.0625 C 0.882812 -0.269531 1.070312 -0.535156 1.15625 -0.859375 C 1.25 -1.191406 1.296875 -1.664062 1.296875 -2.28125 L 1.296875 -6.0625 C 1.296875 -6.695312 1.253906 -7.171875 1.171875 -7.484375 C 1.085938 -7.804688 0.898438 -8.070312 0.609375 -8.28125 L 0.609375 -8.34375 L 1.75 -8.359375 L 3.03125 -8.421875 L 3.03125 -2.28125 C 3.03125 -1.675781 3.066406 -1.207031 3.140625 -0.875 C 3.222656 -0.539062 3.410156 -0.269531 3.703125 -0.0625 L 3.703125 0 Z M 1.234375 -10.40625 L 1.234375 -12.328125 L 3.046875 -12.328125 L 3.046875 -10.40625 Z M 1.234375 -10.40625 "/></g></g></g><g fill="#000000" fill-opacity="1"><g transform="translate(375.035978, 372.438575)"><g><path d="M 4.84375 0.28125 C 4.039062 0.28125 3.320312 0.101562 2.6875 -0.25 C 2.050781 -0.601562 1.550781 -1.109375 1.1875 -1.765625 C 0.820312 -2.429688 0.640625 -3.222656 0.640625 -4.140625 C 0.640625 -5.085938 0.828125 -5.890625 1.203125 -6.546875 C 1.585938 -7.210938 2.109375 -7.722656 2.765625 -8.078125 C 3.421875 -8.429688 4.160156 -8.609375 4.984375 -8.609375 C 5.753906 -8.609375 6.414062 -8.460938 6.96875 -8.171875 C 7.53125 -7.890625 7.976562 -7.507812 8.3125 -7.03125 C 8.65625 -6.5625 8.863281 -6.03125 8.9375 -5.4375 L 7.390625 -5.4375 C 7.335938 -5.820312 7.222656 -6.191406 7.046875 -6.546875 C 6.878906 -6.910156 6.628906 -7.207031 6.296875 -7.4375 C 5.972656 -7.675781 5.546875 -7.796875 5.015625 -7.796875 C 4.140625 -7.796875 3.476562 -7.472656 3.03125 -6.828125 C 2.59375 -6.191406 2.375 -5.382812 2.375 -4.40625 C 2.375 -3.75 2.472656 -3.140625 2.671875 -2.578125 C 2.878906 -2.023438 3.191406 -1.582031 3.609375 -1.25 C 4.035156 -0.925781 4.578125 -0.765625 5.234375 -0.765625 C 6.066406 -0.765625 6.710938 -1.015625 7.171875 -1.515625 C 7.628906 -2.015625 7.929688 -2.644531 8.078125 -3.40625 L 9.015625 -3.40625 C 8.910156 -2.707031 8.679688 -2.078125 8.328125 -1.515625 C 7.984375 -0.960938 7.519531 -0.523438 6.9375 -0.203125 C 6.351562 0.117188 5.65625 0.28125 4.84375 0.28125 Z M 4.84375 0.28125 "/></g></g></g><g fill="#000000" fill-opacity="1"><g transform="translate(384.517602, 372.438575)"><g><path d="M 3.078125 0.21875 C 2.347656 0.21875 1.75 0.0351562 1.28125 -0.328125 C 0.820312 -0.703125 0.59375 -1.25 0.59375 -1.96875 C 0.59375 -2.5 0.722656 -2.925781 0.984375 -3.25 C 1.253906 -3.582031 1.640625 -3.859375 2.140625 -4.078125 C 2.640625 -4.304688 3.234375 -4.515625 3.921875 -4.703125 C 4.441406 -4.867188 4.878906 -5.015625 5.234375 -5.140625 C 5.585938 -5.273438 5.859375 -5.441406 6.046875 -5.640625 C 6.234375 -5.835938 6.328125 -6.109375 6.328125 -6.453125 C 6.335938 -6.890625 6.203125 -7.226562 5.921875 -7.46875 C 5.648438 -7.71875 5.242188 -7.84375 4.703125 -7.84375 C 4.316406 -7.84375 3.957031 -7.765625 3.625 -7.609375 C 3.289062 -7.453125 3.019531 -7.207031 2.8125 -6.875 C 2.601562 -6.550781 2.492188 -6.125 2.484375 -5.59375 L 0.90625 -5.59375 C 0.945312 -6.25 1.15625 -6.800781 1.53125 -7.25 C 1.90625 -7.695312 2.382812 -8.035156 2.96875 -8.265625 C 3.5625 -8.503906 4.191406 -8.625 4.859375 -8.625 C 5.453125 -8.625 5.984375 -8.53125 6.453125 -8.34375 C 6.921875 -8.164062 7.296875 -7.867188 7.578125 -7.453125 C 7.859375 -7.046875 8 -6.5 8 -5.8125 L 8 -2.125 C 8 -1.644531 8.070312 -1.300781 8.21875 -1.09375 C 8.363281 -0.894531 8.5625 -0.796875 8.8125 -0.796875 C 9.03125 -0.796875 9.234375 -0.867188 9.421875 -1.015625 L 9.421875 -0.390625 C 9.242188 -0.234375 9.039062 -0.101562 8.8125 0 C 8.59375 0.09375 8.335938 0.140625 8.046875 0.140625 C 7.566406 0.140625 7.15625 -0.0195312 6.8125 -0.34375 C 6.476562 -0.675781 6.3125 -1.21875 6.3125 -1.96875 L 6.3125 -2.171875 C 6.082031 -1.515625 5.703125 -0.953125 5.171875 -0.484375 C 4.640625 -0.015625 3.941406 0.21875 3.078125 0.21875 Z M 2.28125 -2.1875 C 2.28125 -1.726562 2.410156 -1.390625 2.671875 -1.171875 C 2.941406 -0.960938 3.257812 -0.859375 3.625 -0.859375 C 4.15625 -0.859375 4.617188 -1.003906 5.015625 -1.296875 C 5.421875 -1.597656 5.738281 -2.007812 5.96875 -2.53125 C 6.195312 -3.050781 6.3125 -3.648438 6.3125 -4.328125 L 6.3125 -5.109375 C 6.195312 -4.835938 5.96875 -4.628906 5.625 -4.484375 C 5.28125 -4.335938 4.859375 -4.179688 4.359375 -4.015625 C 3.671875 -3.796875 3.148438 -3.5625 2.796875 -3.3125 C 2.453125 -3.0625 2.28125 -2.6875 2.28125 -2.1875 Z M 2.28125 -2.1875 "/></g></g></g><g fill="#000000" fill-opacity="1"><g transform="translate(393.778298, 372.438575)"><g><path d="M 4.25 0.15625 C 3.789062 0.15625 3.378906 0.0703125 3.015625 -0.09375 C 2.648438 -0.269531 2.359375 -0.5625 2.140625 -0.96875 C 1.921875 -1.382812 1.8125 -1.957031 1.8125 -2.6875 L 1.8125 -7.515625 L 0.0625 -7.515625 L 0.0625 -8.3125 L 1.8125 -8.3125 L 1.8125 -10.609375 L 3.484375 -11.84375 L 3.53125 -11.84375 L 3.53125 -8.3125 L 6.296875 -8.3125 L 6.296875 -7.515625 L 3.53125 -7.515625 L 3.53125 -2.71875 C 3.53125 -2.019531 3.65625 -1.546875 3.90625 -1.296875 C 4.164062 -1.054688 4.488281 -0.9375 4.875 -0.9375 C 5.632812 -0.9375 6.222656 -1.34375 6.640625 -2.15625 L 6.828125 -1.53125 C 6.597656 -1.007812 6.253906 -0.597656 5.796875 -0.296875 C 5.335938 0.00390625 4.820312 0.15625 4.25 0.15625 Z M 4.25 0.15625 "/></g></g></g><g fill="#000000" fill-opacity="1"><g transform="translate(400.558155, 372.438575)"><g><path d="M 4.859375 0.28125 C 4.046875 0.28125 3.320312 0.109375 2.6875 -0.234375 C 2.050781 -0.585938 1.550781 -1.09375 1.1875 -1.75 C 0.820312 -2.40625 0.640625 -3.195312 0.640625 -4.125 C 0.640625 -5.050781 0.828125 -5.847656 1.203125 -6.515625 C 1.585938 -7.179688 2.101562 -7.695312 2.75 -8.0625 C 3.394531 -8.425781 4.113281 -8.609375 4.90625 -8.609375 C 5.726562 -8.609375 6.4375 -8.441406 7.03125 -8.109375 C 7.632812 -7.773438 8.101562 -7.3125 8.4375 -6.71875 C 8.769531 -6.132812 8.941406 -5.457031 8.953125 -4.6875 L 2.328125 -4.6875 L 2.328125 -4.40625 C 2.328125 -3.726562 2.429688 -3.113281 2.640625 -2.5625 C 2.847656 -2.019531 3.164062 -1.585938 3.59375 -1.265625 C 4.03125 -0.953125 4.570312 -0.796875 5.21875 -0.796875 C 6.019531 -0.796875 6.648438 -1.023438 7.109375 -1.484375 C 7.566406 -1.953125 7.882812 -2.523438 8.0625 -3.203125 L 9 -3.203125 C 8.875 -2.554688 8.632812 -1.96875 8.28125 -1.4375 C 7.9375 -0.90625 7.476562 -0.484375 6.90625 -0.171875 C 6.34375 0.128906 5.660156 0.28125 4.859375 0.28125 Z M 2.40625 -5.421875 L 7.28125 -5.421875 C 7.207031 -6.097656 6.972656 -6.664062 6.578125 -7.125 C 6.179688 -7.582031 5.625 -7.8125 4.90625 -7.8125 C 4.238281 -7.8125 3.691406 -7.597656 3.265625 -7.171875 C 2.835938 -6.742188 2.550781 -6.160156 2.40625 -5.421875 Z M 2.40625 -5.421875 "/></g></g></g><g fill="#000000" fill-opacity="1"><g transform="translate(410.158718, 372.438575)"><g><path d="M 7.1875 0 C 7.21875 -0.363281 7.242188 -0.722656 7.265625 -1.078125 C 7.285156 -1.429688 7.296875 -1.800781 7.296875 -2.1875 C 7.046875 -1.507812 6.65625 -0.945312 6.125 -0.5 C 5.601562 -0.0625 4.9375 0.15625 4.125 0.15625 C 3.382812 0.15625 2.753906 -0.03125 2.234375 -0.40625 C 1.722656 -0.789062 1.328125 -1.304688 1.046875 -1.953125 C 0.773438 -2.609375 0.640625 -3.335938 0.640625 -4.140625 C 0.640625 -5.003906 0.789062 -5.765625 1.09375 -6.421875 C 1.394531 -7.085938 1.820312 -7.613281 2.375 -8 C 2.925781 -8.382812 3.578125 -8.578125 4.328125 -8.578125 C 4.992188 -8.578125 5.578125 -8.429688 6.078125 -8.140625 C 6.585938 -7.847656 6.992188 -7.453125 7.296875 -6.953125 L 7.296875 -11 C 7.296875 -11.519531 7.257812 -11.929688 7.1875 -12.234375 C 7.125 -12.535156 6.96875 -12.78125 6.71875 -12.96875 L 6.71875 -13.015625 L 9.03125 -13.3125 L 9.125 -13.265625 C 9.101562 -13.085938 9.082031 -12.910156 9.0625 -12.734375 C 9.050781 -12.566406 9.039062 -12.347656 9.03125 -12.078125 C 9.03125 -11.804688 9.03125 -11.445312 9.03125 -11 L 9.03125 -2.28125 C 9.03125 -1.675781 9.066406 -1.207031 9.140625 -0.875 C 9.222656 -0.539062 9.40625 -0.269531 9.6875 -0.0625 L 9.6875 0 Z M 2.46875 -4.140625 C 2.46875 -3.523438 2.546875 -2.960938 2.703125 -2.453125 C 2.859375 -1.941406 3.109375 -1.53125 3.453125 -1.21875 C 3.796875 -0.914062 4.234375 -0.765625 4.765625 -0.765625 C 5.316406 -0.765625 5.773438 -0.925781 6.140625 -1.25 C 6.515625 -1.570312 6.796875 -2.007812 6.984375 -2.5625 C 7.179688 -3.113281 7.28125 -3.726562 7.28125 -4.40625 L 7.296875 -4.40625 L 7.296875 -6.03125 C 7.078125 -6.53125 6.75 -6.9375 6.3125 -7.25 C 5.882812 -7.570312 5.40625 -7.734375 4.875 -7.734375 C 4.113281 -7.734375 3.519531 -7.40625 3.09375 -6.75 C 2.675781 -6.101562 2.46875 -5.234375 2.46875 -4.140625 Z M 2.46875 -4.140625 "/></g></g></g><g fill="#000000" fill-opacity="1"><g transform="translate(420.489951, 372.438575)"><g/></g></g><g fill="#000000" fill-opacity="1"><g transform="translate(425.043853, 372.438575)"><g><path d="M 0.6875 0 L 0.6875 -0.0625 C 1 -0.269531 1.191406 -0.539062 1.265625 -0.875 C 1.347656 -1.207031 1.390625 -1.675781 1.390625 -2.28125 L 1.390625 -10.984375 C 1.390625 -11.515625 1.351562 -11.929688 1.28125 -12.234375 C 1.21875 -12.535156 1.0625 -12.78125 0.8125 -12.96875 L 0.8125 -13.015625 L 3.125 -13.3125 L 3.234375 -13.265625 C 3.210938 -13.085938 3.191406 -12.910156 3.171875 -12.734375 C 3.148438 -12.566406 3.132812 -12.34375 3.125 -12.0625 C 3.125 -11.789062 3.125 -11.429688 3.125 -10.984375 L 3.125 -6.390625 C 3.382812 -7.035156 3.773438 -7.5625 4.296875 -7.96875 C 4.828125 -8.375 5.5 -8.578125 6.3125 -8.578125 C 7.039062 -8.578125 7.660156 -8.390625 8.171875 -8.015625 C 8.679688 -7.640625 9.070312 -7.128906 9.34375 -6.484375 C 9.625 -5.835938 9.765625 -5.097656 9.765625 -4.265625 C 9.765625 -3.410156 9.613281 -2.648438 9.3125 -1.984375 C 9.007812 -1.328125 8.582031 -0.804688 8.03125 -0.421875 C 7.476562 -0.0351562 6.832031 0.15625 6.09375 0.15625 C 5.46875 0.15625 4.894531 0.015625 4.375 -0.265625 C 3.851562 -0.554688 3.441406 -0.960938 3.140625 -1.484375 C 3.140625 -0.960938 3.175781 -0.46875 3.25 0 Z M 3.125 -2.375 C 3.363281 -1.863281 3.691406 -1.457031 4.109375 -1.15625 C 4.535156 -0.851562 5.007812 -0.703125 5.53125 -0.703125 C 6.300781 -0.703125 6.894531 -1.023438 7.3125 -1.671875 C 7.738281 -2.316406 7.953125 -3.175781 7.953125 -4.25 C 7.953125 -4.882812 7.867188 -5.457031 7.703125 -5.96875 C 7.546875 -6.488281 7.296875 -6.898438 6.953125 -7.203125 C 6.617188 -7.515625 6.1875 -7.671875 5.65625 -7.671875 C 5.113281 -7.671875 4.65625 -7.507812 4.28125 -7.1875 C 3.90625 -6.875 3.617188 -6.4375 3.421875 -5.875 C 3.222656 -5.320312 3.125 -4.695312 3.125 -4 Z M 3.125 -2.375 "/></g></g></g><g fill="#000000" fill-opacity="1"><g transform="translate(435.120146, 372.438575)"><g><path d="M 1.28125 4.125 C 1.070312 4.125 0.863281 4.101562 0.65625 4.0625 C 0.457031 4.03125 0.289062 3.972656 0.15625 3.890625 L 0.15625 2.515625 C 0.289062 2.597656 0.46875 2.664062 0.6875 2.71875 C 0.90625 2.78125 1.140625 2.8125 1.390625 2.8125 C 1.992188 2.8125 2.523438 2.597656 2.984375 2.171875 C 3.441406 1.742188 3.878906 1.019531 4.296875 0 L 3.78125 0 L 1.34375 -6.265625 C 1.132812 -6.773438 0.953125 -7.1875 0.796875 -7.5 C 0.640625 -7.820312 0.429688 -8.078125 0.171875 -8.265625 L 0.171875 -8.3125 L 3.046875 -8.3125 L 3.046875 -8.265625 C 2.804688 -8.109375 2.707031 -7.878906 2.75 -7.578125 C 2.800781 -7.273438 2.914062 -6.859375 3.09375 -6.328125 L 4.828125 -1.421875 L 6.578125 -6.328125 C 6.773438 -6.835938 6.882812 -7.25 6.90625 -7.5625 C 6.9375 -7.882812 6.832031 -8.117188 6.59375 -8.265625 L 6.59375 -8.3125 L 8.75 -8.3125 L 8.75 -8.265625 C 8.539062 -8.117188 8.34375 -7.878906 8.15625 -7.546875 C 7.96875 -7.222656 7.773438 -6.816406 7.578125 -6.328125 L 5.15625 -0.015625 C 4.769531 0.972656 4.382812 1.769531 4 2.375 C 3.625 2.976562 3.21875 3.421875 2.78125 3.703125 C 2.34375 3.984375 1.84375 4.125 1.28125 4.125 Z M 1.28125 4.125 "/></g></g></g><g fill="#000000" fill-opacity="1"><g transform="translate(448.323597, 372.512948)"><g><path d="M 0.703125 -7.984375 C 0.585938 -8.316406 0.472656 -8.570312 0.359375 -8.75 C 0.253906 -8.9375 0.113281 -9.085938 -0.0625 -9.203125 L -0.0625 -9.234375 L 2.421875 -9.234375 L 2.421875 -9.203125 C 2.179688 -9.097656 2.054688 -8.945312 2.046875 -8.75 C 2.035156 -8.5625 2.082031 -8.3125 2.1875 -8 L 4.4375 -1.28125 L 6.71875 -8 C 6.832031 -8.34375 6.878906 -8.601562 6.859375 -8.78125 C 6.835938 -8.957031 6.734375 -9.097656 6.546875 -9.203125 L 6.546875 -9.234375 L 8.328125 -9.234375 L 8.328125 -9.203125 C 8.148438 -9.097656 8.007812 -8.953125 7.90625 -8.765625 C 7.800781 -8.585938 7.6875 -8.332031 7.5625 -8 L 4.9375 -0.65625 C 4.894531 -0.53125 4.863281 -0.414062 4.84375 -0.3125 C 4.820312 -0.21875 4.8125 -0.113281 4.8125 0 L 3.59375 0 Z M 0.703125 -7.984375 "/></g></g></g><g fill="#000000" fill-opacity="1"><g transform="translate(456.589245, 372.512948)"><g><path d="M 0.703125 0 L 0.703125 -0.046875 C 0.941406 -0.191406 1.09375 -0.382812 1.15625 -0.625 C 1.21875 -0.863281 1.25 -1.203125 1.25 -1.640625 L 1.25 -7.609375 C 1.25 -8.054688 1.21875 -8.394531 1.15625 -8.625 C 1.09375 -8.851562 0.941406 -9.046875 0.703125 -9.203125 L 0.703125 -9.234375 L 6.671875 -9.234375 L 6.671875 -8.140625 C 6.015625 -8.304688 5.460938 -8.429688 5.015625 -8.515625 C 4.566406 -8.597656 4.160156 -8.640625 3.796875 -8.640625 L 2.609375 -8.640625 L 2.609375 -5.125 L 3.34375 -5.125 C 3.695312 -5.125 4.113281 -5.128906 4.59375 -5.140625 C 5.070312 -5.160156 5.554688 -5.179688 6.046875 -5.203125 L 6.046875 -4.46875 C 5.554688 -4.488281 5.070312 -4.503906 4.59375 -4.515625 C 4.113281 -4.535156 3.695312 -4.546875 3.34375 -4.546875 L 2.609375 -4.546875 L 2.609375 -0.609375 L 4.015625 -0.609375 C 4.441406 -0.617188 4.890625 -0.671875 5.359375 -0.765625 C 5.828125 -0.867188 6.34375 -1.003906 6.90625 -1.171875 L 6.90625 0 Z M 0.703125 0 "/></g></g></g><g fill="#000000" fill-opacity="1"><g transform="translate(463.817109, 372.512948)"><g><path d="M 6.59375 0 L 3.59375 -4.484375 L 2.609375 -4.484375 L 2.609375 -1.640625 C 2.609375 -1.203125 2.640625 -0.863281 2.703125 -0.625 C 2.765625 -0.382812 2.914062 -0.191406 3.15625 -0.046875 L 3.15625 0 L 0.703125 0 L 0.703125 -0.046875 C 0.941406 -0.191406 1.09375 -0.382812 1.15625 -0.625 C 1.21875 -0.863281 1.25 -1.203125 1.25 -1.640625 L 1.25 -7.609375 C 1.25 -8.054688 1.21875 -8.394531 1.15625 -8.625 C 1.09375 -8.851562 0.941406 -9.046875 0.703125 -9.203125 L 0.703125 -9.234375 L 4.015625 -9.234375 C 4.710938 -9.234375 5.320312 -9.15625 5.84375 -9 C 6.363281 -8.851562 6.769531 -8.613281 7.0625 -8.28125 C 7.351562 -7.945312 7.5 -7.507812 7.5 -6.96875 C 7.5 -6.238281 7.242188 -5.675781 6.734375 -5.28125 C 6.234375 -4.894531 5.585938 -4.664062 4.796875 -4.59375 L 8.171875 -0.078125 L 8.171875 0 Z M 2.609375 -5.078125 L 3.59375 -5.078125 C 4.363281 -5.078125 4.976562 -5.21875 5.4375 -5.5 C 5.90625 -5.789062 6.140625 -6.269531 6.140625 -6.9375 C 6.140625 -7.570312 5.925781 -8.015625 5.5 -8.265625 C 5.070312 -8.515625 4.5 -8.640625 3.78125 -8.640625 L 2.609375 -8.640625 Z M 2.609375 -5.078125 "/></g></g></g><g fill="#000000" fill-opacity="1"><g transform="translate(472.021711, 372.512948)"><g><path d="M 0.703125 0 L 0.703125 -0.046875 C 0.941406 -0.191406 1.09375 -0.382812 1.15625 -0.625 C 1.21875 -0.863281 1.25 -1.203125 1.25 -1.640625 L 1.25 -7.609375 C 1.25 -8.054688 1.21875 -8.394531 1.15625 -8.625 C 1.09375 -8.851562 0.941406 -9.046875 0.703125 -9.203125 L 0.703125 -9.234375 L 3.140625 -9.234375 L 3.140625 -9.203125 C 2.910156 -9.046875 2.765625 -8.851562 2.703125 -8.625 C 2.640625 -8.394531 2.609375 -8.054688 2.609375 -7.609375 L 2.609375 -1.640625 C 2.609375 -1.203125 2.640625 -0.863281 2.703125 -0.625 C 2.765625 -0.382812 2.910156 -0.191406 3.140625 -0.046875 L 3.140625 0 Z M 0.703125 0 "/></g></g></g><g fill="#000000" fill-opacity="1"><g transform="translate(475.879827, 372.512948)"><g><path d="M 0.203125 -8.125 L 0.203125 -9.234375 L 7.421875 -9.234375 L 7.421875 -8.125 C 6.773438 -8.289062 6.234375 -8.421875 5.796875 -8.515625 C 5.367188 -8.617188 4.96875 -8.671875 4.59375 -8.671875 L 4.484375 -8.671875 L 4.484375 -1.640625 C 4.484375 -1.203125 4.515625 -0.863281 4.578125 -0.625 C 4.640625 -0.382812 4.785156 -0.191406 5.015625 -0.046875 L 5.015625 0 L 2.59375 0 L 2.59375 -0.046875 C 2.832031 -0.191406 2.984375 -0.382812 3.046875 -0.625 C 3.109375 -0.863281 3.140625 -1.203125 3.140625 -1.640625 L 3.140625 -8.671875 L 3.03125 -8.671875 C 2.664062 -8.671875 2.265625 -8.617188 1.828125 -8.515625 C 1.390625 -8.421875 0.847656 -8.289062 0.203125 -8.125 Z M 0.203125 -8.125 "/></g></g></g><g fill="#000000" fill-opacity="1"><g transform="translate(483.510597, 372.512948)"><g><path d="M 0.96875 -8.25 C 0.820312 -8.5 0.6875 -8.695312 0.5625 -8.84375 C 0.445312 -8.988281 0.289062 -9.109375 0.09375 -9.203125 L 0.09375 -9.234375 L 2.53125 -9.234375 L 2.53125 -9.203125 C 2.351562 -9.109375 2.269531 -8.972656 2.28125 -8.796875 C 2.289062 -8.617188 2.347656 -8.425781 2.453125 -8.21875 L 4.265625 -4.875 L 6.03125 -8.21875 C 6.144531 -8.425781 6.207031 -8.617188 6.21875 -8.796875 C 6.238281 -8.972656 6.15625 -9.109375 5.96875 -9.203125 L 5.96875 -9.234375 L 7.71875 -9.234375 L 7.71875 -9.203125 C 7.5625 -9.109375 7.410156 -8.988281 7.265625 -8.84375 C 7.128906 -8.695312 6.992188 -8.492188 6.859375 -8.234375 L 4.65625 -4.171875 L 4.65625 -1.640625 C 4.65625 -1.203125 4.6875 -0.863281 4.75 -0.625 C 4.820312 -0.382812 4.972656 -0.191406 5.203125 -0.046875 L 5.203125 0 L 2.765625 0 L 2.765625 -0.046875 C 2.992188 -0.191406 3.140625 -0.382812 3.203125 -0.625 C 3.265625 -0.863281 3.296875 -1.203125 3.296875 -1.640625 L 3.296875 -4.203125 Z M 0.96875 -8.25 "/></g></g></g><g fill="#000000" fill-opacity="1"><g transform="translate(490.946016, 372.512948)"><g/></g></g><g fill="#000000" fill-opacity="1"><g transform="translate(494.218273, 372.512948)"><g><path d="M -0.703125 -0.03125 C -0.472656 -0.175781 -0.25 -0.347656 -0.03125 -0.546875 C 0.1875 -0.742188 0.410156 -1.03125 0.640625 -1.40625 L 4.859375 -8.40625 C 4.941406 -8.539062 5 -8.679688 5.03125 -8.828125 C 5.070312 -8.984375 5.078125 -9.117188 5.046875 -9.234375 L 6.4375 -9.234375 L 7.390625 -1.390625 C 7.441406 -1.003906 7.515625 -0.71875 7.609375 -0.53125 C 7.710938 -0.351562 7.851562 -0.191406 8.03125 -0.046875 L 8.015625 0 L 5.4375 0 L 5.4375 -0.03125 C 5.695312 -0.175781 5.867188 -0.351562 5.953125 -0.5625 C 6.035156 -0.78125 6.0625 -1.050781 6.03125 -1.375 L 5.890625 -2.84375 L 2.34375 -2.84375 L 1.484375 -1.375 C 1.265625 -1.007812 1.144531 -0.726562 1.125 -0.53125 C 1.101562 -0.34375 1.175781 -0.175781 1.34375 -0.03125 L 1.328125 0 L -0.703125 0 Z M 2.703125 -3.453125 L 5.828125 -3.453125 L 5.40625 -8.0625 Z M 2.703125 -3.453125 "/></g></g></g><g fill="#000000" fill-opacity="1"><g transform="translate(502.996709, 372.512948)"><g><path d="M -0.015625 0 L 0 -0.046875 C 0.28125 -0.210938 0.476562 -0.410156 0.59375 -0.640625 C 0.707031 -0.878906 0.816406 -1.210938 0.921875 -1.640625 L 2.40625 -7.609375 C 2.53125 -8.085938 2.585938 -8.4375 2.578125 -8.65625 C 2.566406 -8.882812 2.460938 -9.066406 2.265625 -9.203125 L 2.28125 -9.234375 L 4.734375 -9.234375 L 4.71875 -9.203125 C 4.539062 -9.109375 4.394531 -9 4.28125 -8.875 C 4.175781 -8.75 4.085938 -8.585938 4.015625 -8.390625 C 3.941406 -8.203125 3.863281 -7.941406 3.78125 -7.609375 L 2.3125 -1.640625 C 2.195312 -1.222656 2.140625 -0.894531 2.140625 -0.65625 C 2.148438 -0.414062 2.253906 -0.210938 2.453125 -0.046875 L 2.4375 0 Z M -0.015625 0 "/></g></g></g></svg>